# xmcd CD database file
#
# Track frame offsets:
#	150
#	2708
#	21415
#	31251
#	48378
#	50333
#	66771
#	78369
#	81813
#	103290
#	111437
#	125241
#	137740
#	147464
#	162537
#	165195
#
# Disc length: 2505 seconds
#
# Revision: 0
# Processed by: cddbd v1.5.1PL0 Copyright (c) Steve Scherf et al.
# Submitted via: CDex 1.51
#
DISCID=de09c710
DTITLE=The Idaho Falls - Concrete Prarie
DYEAR=2005
DGENRE=Country
TTITLE0=tail song
TTITLE1=dead horse
TTITLE2=summer camp lament
TTITLE3=california day
TTITLE4=as heard
TTITLE5=jasmine
TTITLE6=concrete prarie
TTITLE7=ponderosa high
TTITLE8=canyon walls
TTITLE9=living in national forests
TTITLE10=country song
TTITLE11=luck in love
TTITLE12=desert rag
TTITLE13=lipstick eagle
TTITLE14=as remembered
TTITLE15=my favourite one
EXTD=YEAR: 2005
EXTT0=
EXTT1=
EXTT2=
EXTT3=
EXTT4=
EXTT5=
EXTT6=
EXTT7=
EXTT8=
EXTT9=
EXTT10=
EXTT11=
EXTT12=
EXTT13=
EXTT14=
EXTT15=
PLAYORDER=
